<svg xmlns="http://www.w3.org/2000/svg" width="32" height="32" viewBox="0 0 48 48"><!-- Icon from IconPark Outline by ByteDance - https://github.com/bytedance/IconPark/blob/master/LICENSE --><g fill="none"><path stroke="#ffffff" stroke-linejoin="round" stroke-width="4" d="M24 37c7.18 0 13-5.82 13-13s-5.82-13-13-13s-13 5.82-13 13s5.82 13 13 13Z"/><path fill="#ffffff" d="M24 6a2.5 2.5 0 1 0 0-5a2.5 2.5 0 0 0 0 5m14.5 6a2.5 2.5 0 1 0 0-5a2.5 2.5 0 0 0 0 5m6 14.5a2.5 2.5 0 1 0 0-5a2.5 2.5 0 0 0 0 5m-6 14.5a2.5 2.5 0 1 0 0-5a2.5 2.5 0 0 0 0 5M24 47a2.5 2.5 0 1 0 0-5a2.5 2.5 0 0 0 0 5M9.5 41a2.5 2.5 0 1 0 0-5a2.5 2.5 0 0 0 0 5m-6-14.5a2.5 2.5 0 1 0 0-5a2.5 2.5 0 0 0 0 5m6-14.5a2.5 2.5 0 1 0 0-5a2.5 2.5 0 0 0 0 5"/></g></svg>